<?xml version="1.0" encoding="UTF-8"?>
<svg version="1.1" xmlns="http://www.w3.org/2000/svg" width="512" height="512">
<path d="M0 0 C5.30031704 3.53867321 9.31147435 7.83573836 13.25 12.8125 C14.8278125 12.1009375 14.8278125 12.1009375 16.4375 11.375 C25.05118096 7.49039878 34.92804728 7.77207257 43.765625 10.76953125 C49.59570753 13.2170659 54.82911868 15.78337313 58.50390625 21.03125 C60.83531319 23.92728897 60.83531319 23.92728897 63.15454102 24.15307617 C65.42823338 24.06907724 67.62218518 23.81750609 69.875 23.5 C81.66368599 22.36164316 90.63308872 24.59570675 100.25 31.8125 C105.16482317 36.09500674 107.38339997 39.98470144 109.3125 46.1875 C110.35294165 49.33040753 110.35294165 49.33040753 112.25 51.8125 C115.78553695 53.00450673 118.96181269 53.25154809 122.6796875 53.48828125 C131.57224655 54.29581123 139.6037867 60.08767285 145.25 66.8125 C146.24520018 68.86889506 147.18182058 70.95451808 148.0625 73.0625 C150.06023009 77.52215802 150.06023009 77.52215802 153.96875 80.22265625 C156.04134838 80.82716411 158.12547922 81.39337594 160.21875 81.921875 C168.49076744 84.35231311 173.58809899 90.73034421 177.80859375 97.9375 C182.56366401 107.42186778 182.62817503 116.43369644 182.25 126.8125 C182.90226562 127.11542969 183.55453125 127.41835937 184.2265625 127.73046875 C196.53534006 133.63069398 203.73252901 141.79629483 208.5234375 154.5859375 C211.64907305 164.16449805 210.98903065 174.08595628 207.90625 183.60546875 C207.1074938 185.90800668 207.1074938 185.90800668 207.25 188.8125 C208.98545927 190.34478729 208.98545927 190.34478729 211.25 191.8125 C221.22111213 199.2908341 227.62853825 210.67356703 230.25 222.8125 C231.71322622 240.92824969 228.49940706 254.02763278 218.0625 268.9375 C210.08043481 277.91096819 198.87919006 283.48666199 187.25 285.8125 C186.92 306.9325 186.59 328.0525 186.25 349.8125 C180.97 349.8125 175.69 349.8125 170.25 349.8125 C170.25 328.6925 170.25 307.5725 170.25 285.8125 C166.95 285.1525 163.65 284.4925 160.25 283.8125 C159.26 283.4825 158.27 283.1525 157.25 282.8125 C156.92 311.1925 156.59 339.5725 156.25 368.8125 C150.97 368.8125 145.69 368.8125 140.25 368.8125 C140.25 340.4325 140.25 312.0525 140.25 282.8125 C137.61 283.8025 134.97 284.7925 132.25 285.8125 C130.93 285.8125 129.61 285.8125 128.25 285.8125 C128.07984375 286.35777344 127.9096875 286.90304687 127.734375 287.46484375 C127.49203125 288.21894531 127.2496875 288.97304688 127 289.75 C126.76796875 290.48089844 126.5359375 291.21179688 126.296875 291.96484375 C125.25 294.8125 125.25 294.8125 124.29418945 296.67468262 C121.2212149 302.78877473 120.64930487 307.97368108 120.640625 314.75390625 C120.62408875 315.76218979 120.60755249 316.77047333 120.59051514 317.80931091 C120.54232095 320.99793767 120.52072756 324.18608852 120.5 327.375 C120.47181646 329.55015379 120.44188573 331.72528568 120.41015625 333.90039062 C120.33656954 339.20438786 120.28682051 344.5081253 120.25 349.8125 C114.97 349.8125 109.69 349.8125 104.25 349.8125 C104.25 337.2725 104.25 324.7325 104.25 311.8125 C95.34 313.7925 95.34 313.7925 86.25 315.8125 C85.92 333.3025 85.59 350.7925 85.25 368.8125 C79.97 368.8125 74.69 368.8125 69.25 368.8125 C69.25 352.3125 69.25 335.8125 69.25 318.8125 C60.34 320.7925 60.34 320.7925 51.25 322.8125 C50.92 331.7225 50.59 340.6325 50.25 349.8125 C44.97 349.8125 39.69 349.8125 34.25 349.8125 C33.92 344.2025 33.59 338.5925 33.25 332.8125 C28.63 336.1125 24.01 339.4125 19.25 342.8125 C21.58844498 368.02178294 21.58844498 368.02178294 32.9375 389.75 C37.26477529 392.44434122 41.31574422 393.54559649 46.25 394.8125 C46.25 400.0925 46.25 405.3725 46.25 410.8125 C29.75 410.8125 13.25 410.8125 -3.75 410.8125 C-3.75 405.5325 -3.75 400.2525 -3.75 394.8125 C2.19 394.4825 8.13 394.1525 14.25 393.8125 C13.47551514 392.21792969 12.70103027 390.62335938 11.90307617 388.98046875 C9.38440804 383.42236503 7.92094676 378.10267143 6.80078125 372.125 C6.59971268 371.10881592 6.3986441 370.09263184 6.19148254 369.0456543 C5.52520475 365.63795137 4.88430264 362.22629493 4.25 358.8125 C3.90264801 356.95044922 3.90264801 356.95044922 3.54827881 355.05078125 C1.9313478 346.33609808 0.36168933 337.61332907 -1.19250488 328.88726807 C-1.8204908 325.36580231 -2.45243558 321.84504695 -3.08398438 318.32421875 C-4.30972571 311.48764482 -5.53130384 304.65033325 -6.75 297.8125 C-9.08498212 297.68527795 -9.08498212 297.68527795 -12.31640625 299.28515625 C-16.8335947 301.01438449 -20.8841768 301.3114891 -25.6875 301.25 C-26.47366699 301.24677734 -27.25983398 301.24355469 -28.06982422 301.24023438 C-34.12039441 301.09476989 -38.48825785 299.93056942 -43.75 296.8125 C-45.35863128 301.27834102 -46.38719878 305.70476704 -47.18286133 310.37158203 C-47.37607719 311.4705204 -47.37607719 311.4705204 -47.57319641 312.59165955 C-47.85111871 314.17417487 -48.12711581 315.75702928 -48.40137672 317.34018326 C-48.8383923 319.85694564 -49.28267691 322.37232364 -49.72917175 324.88742065 C-50.99767891 332.03596365 -52.25941298 339.18563348 -53.5012207 346.33886719 C-54.26313068 350.7246204 -55.03879125 355.10776112 -55.82294273 359.48958969 C-56.11702083 361.14783693 -56.40608447 362.80698251 -56.68973732 364.46704483 C-58.48396631 374.95524607 -60.95267547 384.21785094 -65.75 393.8125 C-59.81 394.1425 -53.87 394.4725 -47.75 394.8125 C-47.75 400.0925 -47.75 405.3725 -47.75 410.8125 C-64.25 410.8125 -80.75 410.8125 -97.75 410.8125 C-97.75 405.5325 -97.75 400.2525 -97.75 394.8125 C-96.22375 394.420625 -94.6975 394.02875 -93.125 393.625 C-86.54735267 391.6025358 -82.57353187 388.73954994 -79.2890625 382.625 C-75.92007437 375.71195433 -74.76358133 368.37611007 -73.4375 360.875 C-73.17254529 359.45222726 -72.90627735 358.02969842 -72.63867188 356.60742188 C-71.26850016 349.75547986 -71.26850016 349.75547986 -70.75 342.8125 C-73.0583175 340.9428806 -75.29998151 339.28346159 -77.75 337.625 C-80.06 336.036875 -82.37 334.44875 -84.75 332.8125 C-85.08 338.4225 -85.41 344.0325 -85.75 349.8125 C-91.03 349.8125 -96.31 349.8125 -101.75 349.8125 C-102.08 340.9025 -102.41 331.9925 -102.75 322.8125 C-108.69 321.4925 -114.63 320.1725 -120.75 318.8125 C-120.75 335.3125 -120.75 351.8125 -120.75 368.8125 C-126.03 368.8125 -131.31 368.8125 -136.75 368.8125 C-137.08 351.3225 -137.41 333.8325 -137.75 315.8125 C-143.69 314.4925 -149.63 313.1725 -155.75 311.8125 C-155.75 324.3525 -155.75 336.8925 -155.75 349.8125 C-161.03 349.8125 -166.31 349.8125 -171.75 349.8125 C-171.74045288 347.84796875 -171.74045288 347.84796875 -171.73071289 345.84375 C-171.71610372 340.90807875 -171.74797303 335.97354588 -171.79272461 331.03808594 C-171.80573234 328.91638092 -171.80672166 326.79456227 -171.79467773 324.67285156 C-171.73255376 312.14155936 -172.33970539 301.88283249 -178.25170898 290.6640625 C-179.75 287.8125 -179.75 287.8125 -179.75 285.8125 C-180.801875 285.68875 -181.85375 285.565 -182.9375 285.4375 C-186.75 284.8125 -186.75 284.8125 -191.75 282.8125 C-191.75 311.1925 -191.75 339.5725 -191.75 368.8125 C-197.03 368.8125 -202.31 368.8125 -207.75 368.8125 C-208.08 340.4325 -208.41 312.0525 -208.75 282.8125 C-212.38 283.8025 -216.01 284.7925 -219.75 285.8125 C-220.41 285.8125 -221.07 285.8125 -221.75 285.8125 C-221.75 306.9325 -221.75 328.0525 -221.75 349.8125 C-227.03 349.8125 -232.31 349.8125 -237.75 349.8125 C-238.08 328.6925 -238.41 307.5725 -238.75 285.8125 C-243.04 284.4925 -247.33 283.1725 -251.75 281.8125 C-256.5625 279.0625 -256.5625 279.0625 -259.75 276.8125 C-259.14665691 273.10746359 -257.52525763 270.95281852 -255.1875 268.0625 C-254.54683594 267.26328125 -253.90617187 266.4640625 -253.24609375 265.640625 C-252.50552734 264.73570312 -252.50552734 264.73570312 -251.75 263.8125 C-248.61713913 264.49668801 -245.87938762 265.61419102 -242.9375 266.875 C-234.31462719 270.02211802 -224.82901355 270.34211056 -216.1875 267.0625 C-211.12942726 264.67977152 -206.7756639 261.71940265 -202.5625 258.0625 C-199.75 255.8125 -199.75 255.8125 -196.75 255.8125 C-191.75 261.16133721 -191.75 261.16133721 -191.75 263.8125 C-190.42741528 264.50024405 -189.09013497 265.15961373 -187.75 265.8125 C-186.265 266.616875 -186.265 266.616875 -184.75 267.4375 C-179.01943157 269.8406416 -172.34913548 269.82194033 -166.41015625 268.15625 C-157.55338438 264.21235159 -153.59227872 256.26211294 -149.75 247.8125 C-148.76 247.8125 -147.77 247.8125 -146.75 247.8125 C-144.953125 249.7890625 -144.953125 249.7890625 -143 252.4375 C-136.93613298 260.27183915 -129.82716182 266.91856533 -119.75 268.8125 C-104.58289057 269.91261139 -95.26018198 266.7335897 -83.75 256.8125 C-82.76 256.1525 -81.77 255.4925 -80.75 254.8125 C-80.05777344 255.70001953 -80.05777344 255.70001953 -79.3515625 256.60546875 C-73.88899239 263.22316733 -68.47504672 268.19806948 -59.65625 269.14453125 C-54.61504501 269.21316152 -49.68464179 268.90908707 -44.75 267.8125 C-44.45867187 268.47636719 -44.16734375 269.14023437 -43.8671875 269.82421875 C-40.88897271 276.23955563 -38.24010062 280.56744969 -31.75 283.8125 C-26.19468752 284.3197965 -21.33169764 284.57510422 -16.25 282.125 C-11.54211701 277.77020823 -9.06113618 273.70589726 -6.75 267.8125 C-6.0075 267.9775 -5.265 268.1425 -4.5 268.3125 C5.1299914 269.59649885 13.14064512 269.75212782 21.25 263.8125 C24.15463096 260.98355975 26.75753906 258.00814126 29.25 254.8125 C29.72308594 255.17601562 30.19617188 255.53953125 30.68359375 255.9140625 C34.34479227 258.6974298 38.04038761 261.43109514 41.8125 264.0625 C42.49441406 264.54203125 43.17632812 265.0215625 43.87890625 265.515625 C51.98351125 269.94845673 62.29770323 270.21679522 71.1640625 268.125 C80.71212637 264.57773169 90.62326679 257.06596641 95.25 247.8125 C96.24 247.8125 97.23 247.8125 98.25 247.8125 C98.67410156 248.68132812 99.09820312 249.55015625 99.53515625 250.4453125 C103.87040822 258.96336802 107.77790245 265.67373424 117.25 268.8125 C124.02449344 269.61609508 129.71986382 269.33058171 135.62890625 265.78515625 C137.25 264.8125 137.25 264.8125 140.25 263.8125 C141.30021103 261.96278304 141.30021103 261.96278304 142.25 259.8125 C143.22581759 258.46136795 144.22029741 257.12303056 145.25 255.8125 C148.81101672 256.41402309 150.75765659 257.82162883 153.5 260.125 C163.52847211 268.17090761 172.55624512 269.72645035 185.25 268.8125 C192.16330324 267.26875268 197.09201893 264.57371329 202.25 259.8125 C202.91 259.8125 203.57 259.8125 204.25 259.8125 C204.5284375 259.23242188 204.806875 258.65234375 205.09375 258.0546875 C206.54768165 255.23523897 208.27807272 252.64826852 210.03125 250.0078125 C214.6572498 241.6750821 214.46484732 231.03349668 212.66796875 221.83203125 C209.31898962 212.21327385 201.33111615 204.20405876 192.25 199.8125 C188.28482015 198.05237084 184.28932731 196.39456986 180.25 194.8125 C180.62511719 194.3278125 181.00023437 193.843125 181.38671875 193.34375 C188.71195662 183.74897999 194.71608103 175.4133737 193.25 162.8125 C191.23700269 154.72434914 187.28135179 149.19144994 180.39453125 144.56640625 C173.04386546 140.68491349 164.38702002 140.52250404 156.25 139.8125 C157.10948211 134.84660335 160.07337241 130.92172556 162.65625 126.6875 C165.25677499 121.99635688 165.68985062 118.17867761 165.25 112.8125 C163.33687183 106.19722548 160.08799284 101.51434577 154.25 97.8125 C150.45650577 95.98576704 147.12408896 95.46353883 142.9375 95.1875 C141.86886719 95.11273438 140.80023438 95.03796875 139.69921875 94.9609375 C138.48685547 94.88746094 138.48685547 94.88746094 137.25 94.8125 C137.10304688 93.966875 136.95609375 93.12125 136.8046875 92.25 C135.36713036 84.97959608 133.94491244 78.86223717 128.25 73.8125 C122.64789456 70.10941335 116.87777768 68.72529357 110.25 69.8125 C107.02971708 70.73485264 103.8975245 71.78122662 100.75390625 72.9375 C98.25 73.8125 98.25 73.8125 96.25 73.8125 C96.22421875 72.53375 96.1984375 71.255 96.171875 69.9375 C96.11555525 68.22913435 96.05820882 66.52080233 96 64.8125 C95.98582031 63.97332031 95.97164063 63.13414063 95.95703125 62.26953125 C95.70503449 55.76801479 94.46156013 49.85379974 89.57373047 45.22509766 C84.66217483 41.36005074 79.33629421 39.53522146 73.0625 39.75 C67.59464191 40.48533264 63.33987933 43.40551402 58.75390625 46.31640625 C56.25 47.8125 56.25 47.8125 54.25 47.8125 C53.68732422 46.49185547 53.68732422 46.49185547 53.11328125 45.14453125 C52.60152344 43.98308594 52.08976562 42.82164063 51.5625 41.625 C51.06363281 40.47644531 50.56476563 39.32789063 50.05078125 38.14453125 C46.956186 32.41852313 42.51611082 28.37674063 36.375 26.125 C30.24022246 25.22282683 24.60562079 25.50678924 19.25 28.8125 C15.36877385 32.29328218 11.78552409 35.98451527 8.25 39.8125 C7.26 39.4825 6.27 39.1525 5.25 38.8125 C4.16600006 36.43717772 3.24780492 34.13844785 2.375 31.6875 C-1.64806554 21.12726318 -6.14305229 15.44308868 -16.5 10.5 C-26.9659194 8.28605551 -35.402604 10.061766 -44.5 15.4375 C-51.05937252 22.3612821 -54.11663775 30.7971069 -56.75 39.8125 C-60.97955375 39.32745943 -62.72075394 36.99113022 -65.5 33.9375 C-70.86448888 28.42334109 -74.51258665 26.26650857 -82.25 25.4375 C-88.61386039 26.11934218 -94.2190062 28.15564526 -98.75 32.8125 C-100.31264751 35.38693366 -101.55178058 38.05249885 -102.75 40.8125 C-103.20246094 41.83923828 -103.20246094 41.83923828 -103.6640625 42.88671875 C-104.37405349 44.52235221 -105.06419895 46.16657748 -105.75 47.8125 C-109.09824382 46.62441348 -111.97642747 45.08214728 -115 43.25 C-120.34701679 40.26664792 -125.07012543 39.07291737 -131.140625 40.29296875 C-137.25592778 42.12553465 -141.7251517 44.58735215 -144.83984375 50.33203125 C-147.16934058 55.11643013 -147.41121782 59.55820906 -147.5 64.8125 C-147.52964844 65.68261719 -147.55929688 66.55273438 -147.58984375 67.44921875 C-147.65975408 69.56983216 -147.70723116 71.69116563 -147.75 73.8125 C-149.52111844 73.33438823 -151.29188483 72.8549722 -153.0625 72.375 C-154.04863281 72.10816406 -155.03476563 71.84132813 -156.05078125 71.56640625 C-157.96517526 71.03170575 -159.86433615 70.44105462 -161.75 69.8125 C-169.05998668 68.76608064 -174.70915405 70.67594874 -180.75 74.8125 C-186.57045777 79.91060979 -187.40484007 87.53988737 -188.75 94.8125 C-189.5234375 94.83828125 -190.296875 94.8640625 -191.09375 94.890625 C-198.06268336 95.27012137 -202.72591863 96.30757993 -208.75 99.8125 C-210.235 100.3075 -210.235 100.3075 -211.75 100.8125 C-212.86935073 102.45880193 -212.86935073 102.45880193 -213.75 104.8125 C-214.14058594 105.70195312 -214.14058594 105.70195312 -214.5390625 106.609375 C-217.32689986 113.33145013 -217.55388683 118.90721526 -214.81640625 125.69140625 C-213.17512295 128.95593676 -211.10334073 131.88150849 -208.95703125 134.83203125 C-207.75 136.8125 -207.75 136.8125 -207.75 139.8125 C-208.86117187 139.89886719 -209.97234375 139.98523438 -211.1171875 140.07421875 C-221.95417186 141.04211139 -230.86444545 142.38082864 -238.6875 150.625 C-243.48520139 156.67870341 -245.39305455 162.50910645 -245.0859375 170.24609375 C-243.80872482 180.00340456 -238.12052734 186.65246286 -231.75 193.8125 C-233.34690814 197.00631628 -236.68189419 197.44803453 -239.875 198.625 C-250.33559209 202.69246287 -255.85038743 206.99505687 -261.75 216.8125 C-262.11480469 217.41578125 -262.47960937 218.0190625 -262.85546875 218.640625 C-266.43477193 226.10170769 -266.03063779 237.11105948 -263.8828125 244.99609375 C-263.21708486 246.6312569 -262.50435227 248.24902677 -261.72265625 249.83203125 C-260.75 251.8125 -260.75 251.8125 -259.75 255.8125 C-265.195 259.7725 -265.195 259.7725 -270.75 263.8125 C-275.18397007 261.59551496 -275.5244356 260.95293288 -277.375 256.625 C-277.77976562 255.70332031 -278.18453125 254.78164063 -278.6015625 253.83203125 C-283.32685913 241.40803705 -284.06827058 225.8720984 -279.015625 213.3828125 C-273.97299619 203.14191819 -268.32273362 195.13050419 -258.75 188.8125 C-258.94916016 187.92498047 -258.94916016 187.92498047 -259.15234375 187.01953125 C-259.41724609 185.83423828 -259.41724609 185.83423828 -259.6875 184.625 C-259.86152344 183.84769531 -260.03554688 183.07039062 -260.21484375 182.26953125 C-260.39144531 181.45871094 -260.56804687 180.64789063 -260.75 179.8125 C-260.93175781 179.02617187 -261.11351562 178.23984375 -261.30078125 177.4296875 C-263.66768493 163.63990083 -260.68539062 152.099735 -252.75 140.8125 C-250.3125 138.0625 -250.3125 138.0625 -247.75 135.8125 C-247.21503906 135.30976563 -246.68007812 134.80703125 -246.12890625 134.2890625 C-242.23731645 130.73549498 -238.69609316 128.62943218 -233.75 126.8125 C-233.78480469 125.85730469 -233.81960937 124.90210938 -233.85546875 123.91796875 C-234.12872284 110.86683304 -232.38900542 100.21392547 -223.75 89.8125 C-218.78533644 85.21277343 -214.12279287 81.89150401 -207.4375 80.5625 C-204.040533 79.74125523 -203.0521721 79.28744689 -201.14453125 76.2890625 C-200.19966414 74.18759336 -199.27308132 72.07782442 -198.36328125 69.9609375 C-194.67501987 62.76302303 -187.72283378 57.52941893 -180.3125 54.47265625 C-177.04683728 53.63134985 -173.86249176 53.53316352 -170.5 53.3125 C-166.89002646 53.01800745 -166.89002646 53.01800745 -163.75 51.8125 C-161.72766767 48.9337032 -160.83919625 46.27333871 -159.796875 42.921875 C-157.2579319 35.38083505 -151.17958551 30.831167 -144.4296875 27.06640625 C-136.68089044 23.44051142 -128.73371213 21.66429939 -120.24609375 23.29296875 C-117.63339672 23.74853589 -115.39376022 24.06063449 -112.75 23.8125 C-111.01319396 22.34678273 -109.94238426 20.72981227 -108.64453125 18.8671875 C-103.04220049 12.79125764 -93.28677032 9.25476122 -85.20703125 8.609375 C-79.29698882 8.50461797 -74.42858371 9.19793168 -68.84375 11.15625 C-66.63858459 11.96204291 -66.63858459 11.96204291 -63.75 11.8125 C-62.22450713 10.27340995 -62.22450713 10.27340995 -60.75 8.25 C-45.23233829 -10.13045884 -19.8327808 -11.69834807 0 0 Z M-146.75 273.8125 C-147.35134766 274.39257812 -147.35134766 274.39257812 -147.96484375 274.984375 C-152.50016436 279.13918119 -157.02749121 281.60654423 -162.75 283.8125 C-162.12002942 288.09629995 -161.35834222 291.31505331 -158.75 294.8125 C-154.66307832 296.41248636 -150.4345492 297.10645083 -146.125 297.875 C-144.26597046 298.23779053 -144.26597046 298.23779053 -142.36938477 298.60791016 C-139.78844493 299.11009213 -137.20544822 299.60180624 -134.62060547 300.08349609 C-130.8859977 300.7868857 -127.16344299 301.53389894 -123.44140625 302.30078125 C-116.98692819 303.62781874 -116.98692819 303.62781874 -110.52734375 304.9296875 C-109.24718384 305.18661377 -109.24718384 305.18661377 -107.94116211 305.44873047 C-105.62694328 305.89438755 -105.62694328 305.89438755 -102.75 305.8125 C-102.89120016 303.22883755 -103.03778333 300.64567115 -103.1875 298.0625 C-103.22681641 297.33289063 -103.26613281 296.60328125 -103.30664062 295.8515625 C-103.51147098 292.3852027 -103.8352002 289.15916974 -104.75 285.8125 C-105.82636719 285.78671875 -106.90273437 285.7609375 -108.01171875 285.734375 C-122.82839708 285.22645252 -134.13621919 281.90350175 -146.75 273.8125 Z M94.25 273.8125 C93.28513672 274.50085938 93.28513672 274.50085938 92.30078125 275.203125 C79.83604703 283.66705295 67.93718308 285.46071118 53.25 285.8125 C51.52851598 295.75838472 51.52851598 295.75838472 51.25 305.8125 C61.63391506 304.3682288 71.88268725 302.37239915 82.15576172 300.29858398 C84.90389105 299.74417147 87.65303789 299.19502962 90.40234375 298.64648438 C92.15631152 298.29457734 93.91022005 297.94237484 95.6640625 297.58984375 C96.89209091 297.34451149 96.89209091 297.34451149 98.14492798 297.09422302 C104.02552429 296.36040059 104.02552429 296.36040059 108.41796875 293.0703125 C108.75441406 292.36648438 109.09085937 291.66265625 109.4375 290.9375 C109.78167969 290.23882812 110.12585938 289.54015625 110.48046875 288.8203125 C111.42894161 286.7039885 111.42894161 286.7039885 111.25 283.8125 C110.44175781 283.42578125 109.63351562 283.0390625 108.80078125 282.640625 C107.73214844 282.11984375 106.66351563 281.5990625 105.5625 281.0625 C104.50675781 280.55203125 103.45101562 280.0415625 102.36328125 279.515625 C99.34996917 277.86718828 96.85712352 276.03750338 94.25 273.8125 Z M-88.75 280.8125 C-88.5584408 284.64872504 -88.33179137 288.47513223 -88.03515625 292.3046875 C-87.8194822 295.17911258 -87.78213399 297.859446 -87.87109375 300.7578125 C-87.79063871 305.89620771 -87.6236422 309.87924415 -83.89306641 313.72851562 C-78.86395455 317.9465499 -73.39767468 321.48328171 -67.75 324.8125 C-65.02400183 322.08650183 -64.87590836 319.20220867 -64.2421875 315.5390625 C-64.11184113 314.81890961 -63.98149475 314.09875671 -63.84719849 313.35678101 C-63.57294478 311.83259699 -63.30252539 310.30771882 -63.03564453 308.78222656 C-62.62756087 306.45212223 -62.2074108 304.12444851 -61.78515625 301.796875 C-61.52011715 300.3152321 -61.2557714 298.83346497 -60.9921875 297.3515625 C-60.86721893 296.65664703 -60.74225037 295.96173157 -60.61349487 295.24575806 C-60.05288504 292.02062485 -59.75 289.10243018 -59.75 285.8125 C-60.5234375 285.64234375 -61.296875 285.4721875 -62.09375 285.296875 C-68.54453087 283.79595074 -73.92438549 281.93336491 -79.75 278.8125 C-83.65036482 277.16603452 -85.3991511 278.48552159 -88.75 280.8125 Z M25.0546875 280.7265625 C20.0221955 283.75477197 14.01877176 285.07291388 8.25 285.8125 C8.88560114 293.91087492 10.21057099 301.82933272 11.6875 309.8125 C11.90470703 311.03839844 12.12191406 312.26429688 12.34570312 313.52734375 C12.66764648 315.27724609 12.66764648 315.27724609 12.99609375 317.0625 C13.18872803 318.11953125 13.3813623 319.1765625 13.57983398 320.265625 C14.05958925 322.95801685 14.05958925 322.95801685 16.25 324.8125 C18.50042262 323.20892346 20.75035059 321.60466064 23 320 C23.63421875 319.54818359 24.2684375 319.09636719 24.921875 318.63085938 C25.85 317.96860352 25.85 317.96860352 26.796875 317.29296875 C27.36245117 316.88973389 27.92802734 316.48649902 28.51074219 316.07104492 C29.3716748 315.44806519 29.3716748 315.44806519 30.25 314.8125 C31.31444336 314.15713257 31.31444336 314.15713257 32.40039062 313.48852539 C34.86387258 311.25623875 34.93438042 309.78699915 35.296875 306.515625 C35.41933594 305.4740625 35.54179687 304.4325 35.66796875 303.359375 C35.83232422 301.72742188 35.83232422 301.72742188 36 300.0625 C36.18755859 298.45375 36.18755859 298.45375 36.37890625 296.8125 C37.32142691 288.82719561 37.32142691 288.82719561 37.25 280.8125 C32.49846804 276.83148674 29.88189894 277.3403097 25.0546875 280.7265625 Z " fill="#000000" transform="translate(281.75,54.1875)"/>
<path d="M0 0 C5.28 0 10.56 0 16 0 C16 5.28 16 10.56 16 16 C10.72 16 5.44 16 0 16 C0 10.72 0 5.44 0 0 Z " fill="#000000" transform="translate(248,449)"/>
<path d="M0 0 C5.28 0 10.56 0 16 0 C16 5.28 16 10.56 16 16 C10.72 16 5.44 16 0 16 C0 10.72 0 5.44 0 0 Z " fill="#000000" transform="translate(334,127)"/>
<path d="M0 0 C5.28 0 10.56 0 16 0 C16 5.28 16 10.56 16 16 C10.72 16 5.44 16 0 16 C0 10.72 0 5.44 0 0 Z " fill="#000000" transform="translate(304,112)"/>
</svg>
